<?xml version="1.0" standalone="no"?>
<!DOCTYPE svg PUBLIC "-//W3C//DTD SVG 20010904//EN"
 "http://www.w3.org/TR/2001/REC-SVG-20010904/DTD/svg10.dtd">
<svg version="1.0" xmlns="http://www.w3.org/2000/svg"
 width="512.000000pt" height="512.000000pt" viewBox="0 0 512.000000 512.000000"
 preserveAspectRatio="xMidYMid meet">
<metadata>
Created by potrace 1.14, written by Peter Selinger 2001-2017
</metadata>
<g transform="translate(0.000000,512.000000) scale(0.100000,-0.100000)"
fill="#000000" stroke="none">
<path d="M65 4588 c4 -40 8 -95 10 -123 2 -27 4 -50 5 -50 2 0 4 -19 14 -155
3 -36 6 -65 7 -65 1 0 3 -22 4 -50 2 -27 4 -50 5 -50 1 0 4 -20 6 -45 12 -158
22 -265 24 -265 2 0 8 -78 14 -160 2 -27 5 -50 6 -50 1 0 3 -18 5 -40 10 -136
15 -196 20 -239 3 -27 8 -74 11 -105 6 -68 10 -118 18 -191 3 -30 8 -89 11
-130 4 -41 9 -86 11 -100 2 -14 6 -59 9 -100 3 -41 7 -88 10 -105 2 -16 7 -66
11 -110 3 -44 8 -91 9 -105 2 -14 6 -56 9 -95 4 -38 9 -88 11 -110 6 -56 16
-171 20 -225 2 -25 4 -45 5 -45 1 0 3 -31 5 -68 3 -50 11 -82 31 -120 35 -68
100 -190 134 -252 40 -72 100 -185 118 -220 9 -16 20 -33 26 -37 6 -4 8 -8 4
-8 -6 0 17 -44 72 -140 5 -8 23 -43 41 -77 32 -63 51 -81 44 -42 -2 11 -7 89
-10 172 -3 84 -7 199 -10 257 -3 58 -8 157 -10 220 -2 63 -6 167 -9 230 -8
163 -15 324 -21 480 -3 74 -8 176 -10 225 -3 50 -7 155 -10 235 -3 80 -7 183
-10 230 -2 47 -6 148 -10 225 -3 77 -8 185 -10 240 -12 254 -17 408 -19 502 0
57 -3 103 -6 103 -5 0 -10 134 -13 347 -1 51 -6 93 -10 93 -4 0 -3 8 2 19 6
10 7 21 4 25 -4 4 -8 37 -8 74 l-1 67 -287 3 -288 2 6 -72z"/>
<path d="M975 4503 c3 -87 8 -201 10 -253 5 -98 14 -315 20 -455 8 -202 16
-388 21 -475 2 -52 6 -158 9 -235 2 -77 5 -140 6 -140 0 0 3 -43 5 -95 11
-306 13 -355 14 -355 2 0 12 -272 14 -347 0 -38 5 -68 10 -68 5 0 4 -6 -1 -12
-8 -11 -10 -33 -3 -40 1 -2 3 -16 4 -33 1 -24 6 -30 21 -28 11 1 45 5 75 8 31
3 65 7 76 9 21 4 88 13 159 21 22 2 56 7 75 10 19 3 53 8 75 10 22 3 56 7 75
11 19 3 55 7 80 9 25 2 45 4 45 5 0 3 28 7 90 14 64 8 91 11 170 22 28 4 65 7
83 7 17 1 32 5 32 10 0 4 4 6 8 3 5 -3 40 0 78 6 38 5 83 11 99 13 17 2 50 6
75 9 25 4 63 9 85 11 22 3 50 7 62 9 12 3 48 7 80 11 32 3 85 10 118 15 33 5
87 12 121 16 33 3 76 9 95 13 l34 7 0 1222 0 1222 -1013 0 -1014 0 7 -157z"/>
<path d="M3331 3407 l0 -1254 65 -44 c36 -24 73 -48 82 -54 9 -5 19 -12 22
-15 3 -3 61 -43 130 -90 69 -46 127 -88 128 -92 2 -4 12 -8 23 -8 10 0 19 -4
19 -8 0 -5 24 -24 53 -42 28 -19 89 -60 134 -92 45 -32 86 -58 92 -58 6 0 11
-4 11 -10 0 -5 6 -10 14 -10 8 0 16 -4 18 -8 2 -7 264 -189 327 -227 25 -16
75 -49 86 -58 50 -39 157 -107 168 -107 10 0 14 17 15 63 0 34 1 62 2 62 3 0
9 44 14 100 2 33 5 60 6 60 1 0 3 23 5 50 1 28 3 50 5 50 1 0 3 25 5 55 7 95
14 185 15 185 3 0 6 35 15 145 4 52 11 100 17 107 6 7 5 14 -2 18 -6 3 -8 10
-5 15 3 4 8 39 11 76 6 79 10 114 18 199 13 124 17 161 20 210 2 28 7 77 10
110 8 74 13 122 20 205 4 36 9 90 12 120 3 30 7 73 9 95 1 22 6 72 10 110 4
39 9 88 11 110 2 22 7 69 10 105 4 36 8 86 8 112 1 27 3 48 6 48 3 0 5 12 6
28 1 26 12 157 20 232 1 19 5 62 8 95 3 33 8 83 11 110 6 53 13 133 20 225 2
30 4 55 5 55 1 0 4 23 6 50 7 85 12 140 14 140 1 0 2 18 3 40 l2 40 -852 3
-852 2 0 -1253z"/>
<path d="M3037 1884 c-4 -4 -116 -17 -149 -18 -16 0 -28 -3 -28 -6 0 -3 -12
-5 -27 -6 -16 0 -50 -4 -78 -8 -74 -11 -115 -16 -160 -21 -22 -2 -56 -7 -75
-10 -19 -3 -55 -8 -80 -10 -25 -2 -56 -6 -70 -9 -14 -2 -49 -7 -78 -10 -53 -6
-99 -12 -162 -22 -19 -3 -53 -8 -75 -10 -22 -2 -53 -6 -70 -9 -16 -2 -84 -11
-150 -20 -66 -9 -136 -18 -155 -20 -19 -3 -56 -7 -81 -10 -25 -3 -55 -7 -67
-10 -11 -2 -47 -6 -79 -10 -32 -3 -71 -8 -88 -11 -16 -3 -43 -7 -60 -8 -16 -2
-55 -7 -85 -12 -30 -4 -62 -8 -70 -9 -31 -2 -57 -16 -57 -30 0 -8 3 -15 6 -15
3 0 7 -51 8 -113 4 -244 8 -337 15 -337 4 0 3 -11 -2 -25 -5 -14 -6 -25 -2
-25 4 0 8 -48 9 -108 2 -101 5 -192 19 -462 3 -63 5 -127 5 -142 -1 -25 1 -26
29 -18 17 5 33 9 35 9 3 0 29 4 58 10 28 6 64 13 80 16 32 6 42 8 227 45 80
16 156 31 170 34 14 2 86 16 160 31 74 15 141 29 150 30 8 2 15 4 15 5 0 2 20
5 85 14 19 3 36 6 38 7 2 2 6 3 52 12 19 4 46 9 60 12 24 5 59 12 105 20 11 2
21 4 23 5 1 2 11 4 22 5 11 1 21 3 23 5 1 1 11 3 22 5 11 2 31 6 45 9 14 3 45
9 70 12 25 3 49 8 53 11 4 2 20 6 35 8 15 3 38 7 52 10 14 3 41 8 60 11 52 10
59 11 140 28 41 8 86 17 100 20 14 2 36 7 50 10 14 3 36 8 50 10 14 3 48 10
75 15 47 11 95 20 140 26 11 2 21 4 23 5 1 2 11 4 22 5 11 1 21 3 23 4 1 2 12
4 25 7 12 2 32 6 45 8 12 3 22 5 22 6 0 1 14 3 30 5 17 1 31 4 33 5 1 1 11 4
22 5 11 1 21 3 23 5 3 2 21 6 67 14 19 3 46 8 60 11 14 3 36 7 50 10 49 9 75
15 105 21 17 4 39 8 50 10 11 2 31 5 45 9 14 3 36 7 50 10 14 3 36 7 50 10 14
3 41 8 60 11 19 3 38 8 41 9 3 2 25 7 50 10 24 4 69 12 99 19 l54 12 -74 51
c-41 29 -83 59 -92 67 -10 9 -18 13 -18 9 0 -5 -4 -3 -8 2 -4 6 -83 62 -177
125 -93 62 -171 117 -173 122 -2 4 -10 8 -18 8 -8 0 -14 5 -14 11 0 5 -4 8 -9
5 -5 -4 -11 -2 -13 3 -1 4 -55 43 -118 86 -63 42 -118 82 -121 87 -3 5 -10 10
-15 10 -12 1 -218 139 -222 150 -2 4 -8 8 -13 8 -9 0 -65 36 -79 50 -14 14
-102 70 -110 70 -6 0 -10 5 -10 10 0 9 -94 12 -103 4z"/>
</g>
</svg>
